<?xml version="1.0" encoding="UTF-8"?>
<svg xmlns="http://www.w3.org/2000/svg" version="1.1" viewBox="0 0 512 512">
  <defs>
    <style>
      .cls-1 {
        fill: #001b94;
        fill-rule: evenodd;
      }
    </style>
  </defs>
  <!-- Generator: Adobe Illustrator 28.6.0, SVG Export Plug-In . SVG Version: 1.2.0 Build 709)  -->
  <g>
    <g id="Layer_1">
      <g id="IndiGo-Blue">
        <path id="Combined-Shape" class="cls-1" d="M492.9,240.04c0,2.35-1.9,4.26-4.24,4.26s-4.24-1.9-4.24-4.26,1.9-4.26,4.24-4.26,4.24,1.91,4.24,4.26ZM480.17,227.27c0,2.35-1.9,4.26-4.24,4.26s-4.24-1.91-4.24-4.26,1.9-4.26,4.24-4.26,4.24,1.91,4.24,4.26ZM492.9,227.27c0,2.35-1.9,4.26-4.24,4.26s-4.24-1.91-4.24-4.26,1.9-4.26,4.24-4.26,4.24,1.91,4.24,4.26ZM467.44,227.27c0,2.35-1.9,4.26-4.24,4.26s-4.24-1.91-4.24-4.26,1.9-4.26,4.24-4.26,4.24,1.91,4.24,4.26ZM500.15,213.62c1.66,1.66,1.66,4.36,0,6.02-1.66,1.66-4.34,1.66-6,0-1.66-1.66-1.66-4.36,0-6.02,1.66-1.66,4.35-1.66,6,0ZM510.76,205.11c1.66,1.66,1.66,4.36,0,6.02-1.66,1.66-4.34,1.66-6,0-1.66-1.66-1.66-4.36,0-6.02,1.66-1.66,4.35-1.66,6,0ZM452.58,227.27c0,2.35-1.9,4.26-4.24,4.26s-4.24-1.91-4.24-4.26,1.9-4.26,4.24-4.26,4.24,1.91,4.24,4.26ZM439.85,227.27c0,2.35-1.9,4.26-4.24,4.26s-4.24-1.91-4.24-4.26,1.9-4.26,4.24-4.26,4.24,1.91,4.24,4.26ZM488.66,248.55c2.34,0,4.24,1.91,4.24,4.26s-1.9,4.26-4.24,4.26-4.24-1.91-4.24-4.26,1.9-4.26,4.24-4.26ZM441.97,291.11c0,2.35-1.9,4.26-4.24,4.26s-4.24-1.91-4.24-4.26,1.9-4.26,4.24-4.26,4.24,1.9,4.24,4.26ZM429.24,278.34c0,2.35-1.9,4.26-4.24,4.26s-4.24-1.91-4.24-4.26,1.9-4.26,4.24-4.26,4.24,1.91,4.24,4.26ZM441.97,278.34c0,2.35-1.9,4.26-4.24,4.26s-4.24-1.91-4.24-4.26,1.9-4.26,4.24-4.26,4.24,1.91,4.24,4.26ZM416.51,278.34c0,2.35-1.9,4.26-4.24,4.26s-4.24-1.91-4.24-4.26,1.9-4.26,4.24-4.26,4.24,1.91,4.24,4.26ZM437.73,299.62c2.34,0,4.24,1.91,4.24,4.26s-1.9,4.26-4.24,4.26-4.24-1.91-4.24-4.26,1.9-4.26,4.24-4.26ZM488.66,261.32c2.34,0,4.24,1.91,4.24,4.26s-1.9,4.26-4.24,4.26-4.24-1.9-4.24-4.26,1.9-4.26,4.24-4.26ZM488.66,276.22c2.34,0,4.24,1.9,4.24,4.26s-1.9,4.26-4.24,4.26-4.24-1.91-4.24-4.26,1.9-4.26,4.24-4.26ZM461.07,259.19c0,2.35-1.9,4.26-4.24,4.26s-4.24-1.9-4.24-4.26,1.9-4.26,4.24-4.26,4.24,1.91,4.24,4.26ZM468.32,245.54c1.66,1.66,1.66,4.36,0,6.02-1.66,1.66-4.34,1.66-6,0-1.66-1.66-1.66-4.36,0-6.02,1.66-1.66,4.34-1.66,6,0ZM478.93,237.03c1.66,1.66,1.66,4.36,0,6.02-1.66,1.66-4.34,1.66-6,0-1.66-1.66-1.66-4.36,0-6.02,1.66-1.66,4.34-1.66,6,0ZM451.34,264.69c1.66,1.66,1.66,4.36,0,6.02-1.66,1.66-4.35,1.66-6,0-1.66-1.66-1.66-4.36,0-6.02,1.66-1.66,4.34-1.66,6,0ZM283.54,295.54c-9.86,8.4-21.47,12.59-34.8,12.59-14.31,0-26.7-5.02-37.13-15.05-10.34-10.13-15.53-22.46-15.53-36.93s5.18-26.81,15.52-36.94c10.43-10.22,22.82-15.34,37.13-15.34,8.47,0,15.91,1.39,22.32,4.2,6.41,2.71,12.87,7.34,19.39,13.86l.53.53-10.02,10.8-.57-.48c-6.37-5.32-11.27-8.88-14.73-10.75-5.12-2.69-10.75-4.05-16.92-4.04-10.65,0-19.5,3.72-26.58,11.17-7.1,7.46-10.64,16.44-10.65,27,0,10.45,3.54,19.39,10.65,26.85,7.08,7.45,15.93,11.17,26.57,11.17,9.84,0,18.14-2.84,24.94-8.51,7.05-5.86,10.66-13.37,10.85-22.58h-34.72v-13.98h50.31s0,9.2,0,9.2c0,15.43-5.52,27.87-16.57,37.26ZM370.15,297.65c-7.1,6.79-15.64,10.2-25.56,10.2s-18.31-3.41-25.41-10.2c-7.12-6.82-10.68-15.49-10.68-25.96s3.51-18.99,10.53-25.81c7.1-6.9,15.64-10.35,25.55-10.35s18.31,3.45,25.41,10.35c7.21,6.81,10.82,15.43,10.82,25.81s-3.55,19.14-10.67,25.96ZM360.03,255.26c-4.03-4.21-9.15-6.32-15.44-6.32s-11.55,2.11-15.58,6.32c-3.93,4.1-5.93,9.56-5.93,16.43s2.04,12.23,6.07,16.44c4.03,4.21,9.16,6.32,15.43,6.32s11.4-2.11,15.44-6.32c4.03-4.21,6.07-9.66,6.07-16.44s-2.04-12.22-6.07-16.43ZM185.47,228.3c-1.43,1.63-3.53,2.39-6.15,2.39-2.46,0-4.55-.79-6.14-2.39-1.47-1.67-2.22-3.69-2.22-5.96s.73-4.23,2.21-5.81c1.51-1.62,3.6-2.39,6.15-2.39s4.5.83,6.01,2.53c1.56,1.57,2.35,3.47,2.35,5.67,0,2.36-.73,4.36-2.21,5.96ZM172.25,306.43v-69.47h14.15v69.47h-14.15ZM152.63,297.34c-6.54,7.02-15,10.52-25.3,10.52-10.88,0-19.72-3.74-26.45-11.24-6.34-7.1-9.49-16-9.49-26.63,0-9.61,3.27-17.75,9.8-24.37,6.62-6.71,14.54-10.08,23.71-10.08,7.26,0,13.83,1.6,19.67,4.8l.41.23v15.07l-1.23-.83c-2.32-1.57-5.08-2.93-8.26-4.05-3.08-1.2-5.9-1.8-8.44-1.8-6.58,0-11.79,2.08-15.72,6.18-3.93,4.11-5.93,9.55-5.93,16.43s2.03,12.28,6.07,16.58c4.12,4.21,9.39,6.32,15.86,6.32,6.06,0,11.04-2.28,14.99-6.86,4.02-4.56,6.09-11.25,6.09-20.17v-61.84h14.15v64.12c0,11.29-3.29,20.53-9.92,27.64ZM68.85,306.43v-40.44c0-4.95-1.56-8.99-4.65-12.16-2.99-3.26-6.69-4.89-11.14-4.89s-7.96,1.61-11.15,4.9c-3.08,3.17-4.63,7.19-4.63,12.15v40.44h-14v-40.44c0-8.92,2.78-16.26,8.37-21.95,5.6-5.68,12.76-8.51,21.43-8.51s15.74,2.83,21.42,8.51c5.69,5.68,8.52,13.02,8.52,21.95v40.44h-14.15ZM0,306.43v-100.85h14.86v100.85s-14.86,0-14.86,0Z"/>
      </g>
    </g>
  </g>
</svg>